<?xml version="1.0" standalone="no"?>
<!DOCTYPE svg PUBLIC "-//W3C//DTD SVG 20010904//EN"
 "http://www.w3.org/TR/2001/REC-SVG-20010904/DTD/svg10.dtd">
<svg version="1.0" xmlns="http://www.w3.org/2000/svg"
 width="120.000000pt" height="120.000000pt" viewBox="0 0 120.000000 120.000000"
 preserveAspectRatio="xMidYMid meet">
<metadata>
Created by potrace 1.11, written by Peter Selinger 2001-2013
</metadata>
<g transform="translate(0.000000,120.000000) scale(0.100000,-0.100000)"
fill="#000000" stroke="none">
<path d="M747 1132 c-10 -10 -22 -43 -27 -73 -27 -146 -27 -146 -61 -147 -48
-1 -67 -11 -77 -42 -6 -15 -8 -31 -5 -34 4 -3 4 -6 0 -6 -3 0 -17 11 -31 25
-25 25 -45 27 -87 10 -9 -3 -23 -23 -31 -43 l-14 -37 -22 86 c-13 47 -32 99
-42 117 -25 40 -67 53 -87 26 -17 -23 -12 -67 23 -189 14 -49 28 -101 32 -115
7 -25 7 -121 1 -236 -4 -54 -1 -66 26 -105 27 -41 29 -51 31 -147 1 -57 5
-106 8 -110 10 -9 316 -15 318 -5 0 4 2 20 3 34 2 32 33 164 47 204 6 17 28
53 50 82 40 55 48 96 27 135 -20 37 -14 167 15 371 15 101 13 161 -9 194 -19
28 -65 31 -88 5z"/>
</g>
</svg>
